HIERARCHY
ROOT Hips
{
	OFFSET -0.001795 -0.223333 0.028219
	CHANNELS 6 Xposition Yposition Zposition Zrotation Yrotation Xrotation 
	JOINT LeftUpLeg
	{
		OFFSET 0.069520 -0.091406 -0.006815
		CHANNELS 3 Zrotation Yrotation Xrotation
		JOINT LeftLeg
		{
			OFFSET 0.034277 -0.375199 -0.004496
			CHANNELS 3 Zrotation Yrotation Xrotation
			JOINT LeftFoot
			{
				OFFSET -0.013596 -0.397961 -0.043693
				CHANNELS 3 Zrotation Yrotation Xrotation
				JOINT LeftToe
				{
					OFFSET 0.026358 -0.055791 0.119288
					CHANNELS 3 Zrotation Yrotation Xrotation
					End Site
					{
						OFFSET 0.000000 0.000000 0.000000
					}
				}
			}
		}
	}
	JOINT RightUpLeg
	{
		OFFSET -0.067670 -0.090522 -0.004320
		CHANNELS 3 Zrotation Yrotation Xrotation
		JOINT RightLeg
		{
			OFFSET -0.038290 -0.382569 -0.008850
			CHANNELS 3 Zrotation Yrotation Xrotation
			JOINT RightFoot
			{
				OFFSET 0.015774 -0.398415 -0.042312
				CHANNELS 3 Zrotation Yrotation Xrotation
				JOINT RightToe
				{
					OFFSET -0.025372 -0.048144 0.123348
					CHANNELS 3 Zrotation Yrotation Xrotation
					End Site
					{
						OFFSET 0.000000 0.000000 0.000000
					}
				}
			}
		}
	}
	JOINT Spine
	{
		OFFSET -0.002533 0.108963 -0.026696
		CHANNELS 3 Zrotation Yrotation Xrotation
		JOINT Spine1
		{
			OFFSET 0.005487 0.135180 0.001092
			CHANNELS 3 Zrotation Yrotation Xrotation
			JOINT Spine2
			{
				OFFSET 0.001457 0.052922 0.025425
				CHANNELS 3 Zrotation Yrotation Xrotation
				JOINT Neck
				{
					OFFSET -0.002778 0.213870 -0.042857
					CHANNELS 3 Zrotation Yrotation Xrotation
					JOINT Head
					{
						OFFSET 0.005152 0.064970 0.051349
						CHANNELS 3 Zrotation Yrotation Xrotation
						End Site
						{
							OFFSET 0.000000 0.000000 0.000000
						}
					}
				}
				JOINT LeftShoulder
				{
					OFFSET 0.078845 0.121749 -0.034090
					CHANNELS 3 Zrotation Yrotation Xrotation
					JOINT LeftArm
					{
						OFFSET 0.090977 0.030469 -0.008868
						CHANNELS 3 Zrotation Yrotation Xrotation
						JOINT LeftForeArm
						{
							OFFSET 0.259612 -0.012772 -0.027456
							CHANNELS 3 Zrotation Yrotation Xrotation
							JOINT LeftHand
							{
								OFFSET 0.249234 0.008986 -0.001171
								CHANNELS 3 Zrotation Yrotation Xrotation
								End Site
								{
									OFFSET 0.000000 0.000000 0.000000
								}
							}
						}
					}
				}
				JOINT RightShoulder
				{
					OFFSET -0.081759 0.118833 -0.038615
					CHANNELS 3 Zrotation Yrotation Xrotation
					JOINT RightArm
					{
						OFFSET -0.096012 0.032551 -0.009143
						CHANNELS 3 Zrotation Yrotation Xrotation
						JOINT RightForeArm
						{
							OFFSET -0.253742 -0.013329 -0.021401
							CHANNELS 3 Zrotation Yrotation Xrotation
							JOINT RightHand
							{
								OFFSET -0.255298 0.007772 -0.005559
								CHANNELS 3 Zrotation Yrotation Xrotation
								End Site
								{
									OFFSET 0.000000 0.000000 0.000000
								}
							}
						}
					}
				}
			}
		}
	}
}
MOTION
Frames: 11
Frame Time: 0.050000
0.000000 0.883105 0.000000 -0.214017 2.966889 -1.216148 8.876009 -0.570807 -21.811221 -12.427005 3.603594 34.409313 12.311584 24.162192 7.794665 0.000000 0.000000 0.000000 -6.282878 1.005472 -23.347578 9.374040 -3.479455 39.943252 -6.682332 -16.444401 -0.613495 0.000000 0.000000 0.000000 0.377571 -1.395223 26.648862 -1.080843 0.464174 2.168497 -1.640046 -0.971512 -1.226869 3.802055 -1.684321 -10.021416 0.000000 0.000000 0.000000 -20.182310 -22.366137 10.111423 -38.298262 -22.633498 2.818742 -61.918639 -75.949749 53.294233 0.000000 0.000000 0.000000 16.583266 21.434331 9.681995 37.281109 30.044005 5.597958 14.401101 72.549243 13.164539 0.000000 0.000000 0.000000 
-0.000052 0.878114 0.002284 -0.356286 3.307823 -0.270932 9.681493 -0.492946 -22.859869 -13.497535 4.020083 34.604167 12.400236 24.446487 6.084091 0.000000 0.000000 0.000000 -6.805343 0.924847 -24.528500 11.141036 -4.507346 40.572690 -7.698798 -18.893032 -1.829607 0.000000 0.000000 0.000000 0.607481 -1.338738 24.536032 -1.195289 0.455121 4.131496 -1.406730 -1.167480 -2.414923 3.946162 -1.754310 -10.016868 0.000000 0.000000 0.000000 -21.960848 -22.138784 10.233703 -34.698166 -21.711664 2.272566 -94.054744 -75.144301 82.636980 0.000000 0.000000 0.000000 15.044383 21.103961 9.257863 37.029449 30.613341 5.835978 32.086024 76.817424 28.368898 0.000000 0.000000 0.000000 
-0.000021 0.875985 0.003404 -0.558310 3.373019 -0.512708 9.089643 -0.602836 -22.986343 -12.217891 3.522649 35.592168 12.550185 24.734359 5.309949 0.000000 0.000000 0.000000 -6.872394 0.896580 -24.273886 11.944254 -4.837598 39.667449 -8.673760 -21.187463 -0.597556 0.000000 0.000000 0.000000 0.939402 -1.371133 23.859388 -0.508788 0.043864 5.367116 -2.317029 -1.567900 -3.047271 3.956266 -2.079354 -7.377716 0.000000 0.000000 0.000000 -21.657833 -22.444604 10.380822 -33.152138 -20.610655 1.886880 -112.543652 -74.170887 100.959371 0.000000 0.000000 0.000000 14.559636 21.542266 9.370745 31.229657 31.072133 4.805530 59.630441 80.591624 54.719401 0.000000 0.000000 0.000000 
0.000131 0.875627 0.003039 -0.386838 3.924229 -0.611819 8.723794 -0.729954 -23.804507 -11.994219 3.403061 36.914508 12.340426 24.348649 6.281443 0.000000 0.000000 0.000000 -7.104032 0.815206 -24.572858 12.124137 -5.136913 40.473130 -9.069154 -22.062613 -0.082322 0.000000 0.000000 0.000000 1.133718 -1.379231 23.007166 -1.018916 0.227652 7.427420 -1.983131 -2.000822 -3.588765 3.347995 -1.619001 -7.834291 0.000000 0.000000 0.000000 -18.880267 -21.700977 9.661111 -31.225206 -22.035228 2.070952 -132.728367 -69.843693 120.379557 0.000000 0.000000 0.000000 10.499098 20.171512 8.112081 28.233163 33.011573 4.661124 108.115853 82.011873 103.509450 0.000000 0.000000 0.000000 
0.000484 0.876121 0.001417 -0.415692 4.378252 -0.946899 8.639261 -0.784236 -24.129002 -12.168024 3.451929 38.080801 12.157091 24.058918 6.152029 0.000000 0.000000 0.000000 -7.121512 0.761981 -23.936482 12.061716 -5.138323 39.860969 -9.139523 -22.218028 -0.033455 0.000000 0.000000 0.000000 0.826548 -1.349896 23.230185 -0.957328 0.192490 7.076167 -1.392712 -1.772918 -2.881819 2.664695 -1.192970 -7.598688 0.000000 0.000000 0.000000 -16.353967 -22.408260 9.682703 -27.464910 -22.342182 1.711307 -147.162444 -66.293760 136.577217 0.000000 0.000000 0.000000 6.975022 20.662559 7.989345 22.846315 31.743535 3.155083 156.383369 80.588936 156.257040 0.000000 0.000000 0.000000 
0.000952 0.877310 -0.001156 -0.414107 4.850541 -0.685407 8.674761 -0.830557 -24.556123 -12.495261 3.521906 38.248787 11.789550 23.502797 5.407492 0.000000 0.000000 0.000000 -7.227980 0.726112 -24.965872 12.051325 -5.251695 40.020029 -9.849242 -23.437356 3.123638 0.000000 0.000000 0.000000 0.801131 -1.310916 22.428872 -0.696278 0.000108 7.663625 -1.131650 -0.892644 -2.463326 2.608634 -0.915679 -9.390413 0.000000 0.000000 0.000000 -13.894104 -22.762232 9.335546 -24.547327 -22.087877 1.386473 -155.941170 -63.044338 146.932850 0.000000 0.000000 0.000000 3.900473 20.205803 7.572129 18.922962 30.759644 2.159566 179.947881 77.434251 -174.962414 0.000000 0.000000 0.000000 
0.001625 0.878944 -0.003962 -0.503554 5.203842 -0.881615 8.691046 -0.844486 -24.415852 -12.581776 3.490372 38.348824 11.324527 22.740972 4.648243 0.000000 0.000000 0.000000 -7.073417 0.728788 -24.858029 12.211965 -5.376519 39.710575 -10.597747 -24.834833 4.253356 0.000000 0.000000 0.000000 0.727271 -1.326957 22.630285 -0.329001 -0.167245 6.700612 -1.226601 -0.125900 -1.772655 3.265468 -1.346694 -9.045309 0.000000 0.000000 0.000000 -11.394560 -21.603990 8.301438 -21.826617 -22.038896 1.108759 -162.297718 -61.702611 155.843534 0.000000 0.000000 0.000000 2.408999 19.696748 7.280594 15.561606 29.524546 1.334901 -164.149135 75.799921 -153.751439 0.000000 0.000000 0.000000 
0.002443 0.880103 -0.006610 -0.448370 4.943858 -0.550027 8.819357 -0.821152 -24.816545 -13.003256 3.768584 38.779662 10.891701 22.011186 3.695311 0.000000 0.000000 0.000000 -7.097889 0.756868 -25.434082 11.940809 -5.196565 39.886624 -10.199125 -24.018004 4.350439 0.000000 0.000000 0.000000 0.671691 -1.243194 21.762875 -0.309099 -0.211358 7.449567 -1.219649 0.389905 -2.185369 3.073424 -1.246903 -8.595778 0.000000 0.000000 0.000000 -9.763987 -20.097508 7.392046 -19.326716 -21.544057 0.826863 -165.324522 -62.088357 160.786137 0.000000 0.000000 0.000000 2.261502 18.699777 6.911582 12.926445 29.845378 0.888358 -152.847427 75.897316 -139.386622 0.000000 0.000000 0.000000 
0.003850 0.881219 -0.008625 -0.434327 4.787939 -0.649244 8.691882 -0.824473 -24.614166 -12.860909 3.749837 39.076226 10.268652 20.886411 2.517231 0.000000 0.000000 0.000000 -7.107682 0.766767 -25.478420 11.549382 -4.992369 40.172953 -9.612897 -22.827143 4.241809 0.000000 0.000000 0.000000 0.724405 -1.249341 21.787685 -0.459295 -0.071356 6.497438 -1.049085 0.946520 -1.734581 3.426697 -1.559722 -7.880685 0.000000 0.000000 0.000000 -8.640561 -19.469247 6.967626 -17.691236 -20.755440 0.576551 -167.262625 -62.597019 163.862234 0.000000 0.000000 0.000000 2.422398 17.778417 6.608695 10.497189 31.235422 0.493615 -143.723907 77.165667 -129.134795 0.000000 0.000000 0.000000 
0.005955 0.883956 -0.010041 -0.077821 4.508470 -0.430264 8.203514 -0.899298 -24.597298 -12.963698 3.869396 39.180438 9.941460 20.276544 2.006651 0.000000 0.000000 0.000000 -7.147668 0.778663 -25.252762 10.375955 -4.300786 39.909570 -8.521172 -20.623410 3.108381 0.000000 0.000000 0.000000 1.051560 -1.262480 21.244808 -0.986792 0.295120 4.862377 -1.157294 0.617305 -0.576092 3.057622 -1.150865 -9.399181 0.000000 0.000000 0.000000 -7.450789 -18.823854 6.704029 -15.230603 -21.012047 0.306434 -168.190872 -62.952810 165.744794 0.000000 0.000000 0.000000 2.053934 17.389807 6.392455 7.860065 32.756609 -0.036963 -142.326377 77.875199 -128.294720 0.000000 0.000000 0.000000 
0.008780 0.887380 -0.010505 -0.070769 3.575560 -0.381057 7.737767 -0.887906 -23.730329 -12.554999 3.811197 38.218928 10.102403 20.543291 1.529065 0.000000 0.000000 0.000000 -6.753366 0.932914 -25.158337 9.154012 -3.456231 39.541771 -7.608189 -18.679967 3.509161 0.000000 0.000000 0.000000 1.155425 -1.200005 20.577310 -1.306340 0.490439 4.693892 -0.378980 0.400881 -1.229369 2.374097 -0.635881 -10.332378 0.000000 0.000000 0.000000 -5.908580 -18.422456 6.544628 -13.774736 -21.330178 0.197620 -168.546909 -62.242261 166.610334 0.000000 0.000000 0.000000 -0.651043 17.240853 6.012667 5.419084 35.321347 -0.529390 -152.023863 78.510379 -140.555615 0.000000 0.000000 0.000000 
